<svg xmlns="http://www.w3.org/2000/svg" xmlns:xlink="http://www.w3.org/1999/xlink" width="200" zoomAndPan="magnify" viewBox="0 0 150 149.999998" height="200" preserveAspectRatio="xMidYMid meet" version="1.0"><defs><g/><clipPath id="f01189804c"><path d="M 46.375 57 L 80 57 L 80 63.011719 L 46.375 63.011719 Z M 46.375 57 " clip-rule="nonzero"/></clipPath><clipPath id="9adb2cc10d"><path d="M 64 60 L 76 60 L 76 63.011719 L 64 63.011719 Z M 64 60 " clip-rule="nonzero"/></clipPath><clipPath id="fdf8218a50"><path d="M 70 31 L 106 31 L 106 63.011719 L 70 63.011719 Z M 70 31 " clip-rule="nonzero"/></clipPath><clipPath id="e4bb7e1186"><path d="M 75 60 L 106 60 L 106 63.011719 L 75 63.011719 Z M 75 60 " clip-rule="nonzero"/></clipPath><clipPath id="844219f1fc"><path d="M 46.375 31 L 77 31 L 77 62 L 46.375 62 Z M 46.375 31 " clip-rule="nonzero"/></clipPath><clipPath id="1046d09378"><path d="M 56.949219 56.949219 L 92.949219 56.949219 L 92.949219 92.949219 L 56.949219 92.949219 Z M 56.949219 56.949219 " clip-rule="nonzero"/></clipPath><clipPath id="6250fe9b7e"><path d="M 37.839844 60.761719 L 67 60.761719 L 67 75 L 37.839844 75 Z M 37.839844 60.761719 " clip-rule="nonzero"/></clipPath><clipPath id="b57cbd687b"><path d="M 87 77 L 112.089844 77 L 112.089844 81 L 87 81 Z M 87 77 " clip-rule="nonzero"/></clipPath><clipPath id="4c24897d7a"><path d="M 98 81 L 108 81 L 108 83.261719 L 98 83.261719 Z M 98 81 " clip-rule="nonzero"/></clipPath></defs><g clip-path="url(#f01189804c)"><path fill="#000000" d="M 49.195312 87.679688 C 46.207031 84.691406 46.207031 79.855469 49.195312 76.871094 L 68.664062 57.398438 C 69.113281 56.953125 69.835938 56.953125 70.28125 57.398438 L 79.472656 66.589844 C 79.921875 67.035156 79.921875 67.761719 79.472656 68.207031 L 60.003906 87.679688 C 57.015625 90.664062 52.179688 90.664062 49.195312 87.679688 Z M 69.472656 59.824219 L 50.8125 78.488281 C 48.71875 80.578125 48.71875 83.96875 50.8125 86.0625 C 52.90625 88.152344 56.292969 88.152344 58.386719 86.0625 L 77.046875 67.398438 Z M 69.472656 59.824219 " fill-opacity="1" fill-rule="nonzero"/></g><g clip-path="url(#9adb2cc10d)"><path fill="#000000" d="M 74.027344 72.035156 L 64.835938 62.84375 C 64.390625 62.398438 64.390625 61.671875 64.835938 61.226562 C 65.285156 60.78125 66.007812 60.78125 66.453125 61.226562 L 75.644531 70.417969 C 76.09375 70.863281 76.09375 71.589844 75.644531 72.035156 C 75.199219 72.480469 74.476562 72.480469 74.027344 72.035156 Z M 74.027344 72.035156 " fill-opacity="1" fill-rule="nonzero"/></g><g clip-path="url(#fdf8218a50)"><path fill="#000000" d="M 75.8125 66.164062 L 70.707031 61.058594 C 70.261719 60.613281 70.261719 59.886719 70.707031 59.441406 L 89.863281 40.285156 L 90.800781 37.476562 C 90.875 37.25 91.023438 37.050781 91.21875 36.910156 L 98.367188 31.804688 C 98.824219 31.476562 99.445312 31.53125 99.839844 31.925781 L 104.949219 37.03125 C 105.34375 37.425781 105.394531 38.050781 105.070312 38.503906 L 99.964844 45.652344 C 99.824219 45.847656 99.625 45.996094 99.394531 46.074219 L 96.585938 47.007812 L 77.429688 66.164062 C 76.984375 66.609375 76.261719 66.613281 75.8125 66.164062 Z M 73.132812 60.25 L 76.621094 63.738281 L 95.160156 45.199219 C 95.285156 45.074219 95.4375 44.980469 95.609375 44.925781 L 98.320312 44.019531 L 102.644531 37.964844 L 98.910156 34.226562 L 92.851562 38.554688 L 91.949219 41.265625 C 91.890625 41.433594 91.796875 41.585938 91.671875 41.710938 Z M 73.132812 60.25 " fill-opacity="1" fill-rule="nonzero"/></g><g clip-path="url(#e4bb7e1186)"><path fill="#000000" d="M 88.476562 87.03125 C 85.746094 84.296875 84.878906 80.167969 86.230469 76.582031 L 75.8125 66.164062 C 75.367188 65.71875 75.367188 64.992188 75.8125 64.546875 C 76.261719 64.101562 76.984375 64.101562 77.429688 64.546875 L 88.253906 75.371094 C 88.671875 75.792969 88.785156 76.4375 88.542969 76.976562 C 87.265625 79.816406 87.890625 83.207031 90.09375 85.414062 C 91.949219 87.265625 94.605469 88 97.09375 87.445312 L 93.601562 83.957031 C 93.15625 83.507812 93.15625 82.785156 93.601562 82.339844 L 97.703125 78.238281 C 98.152344 77.789062 98.875 77.789062 99.320312 78.238281 L 102.808594 81.726562 C 103.363281 79.238281 102.632812 76.582031 100.78125 74.730469 C 98.574219 72.523438 95.183594 71.898438 92.339844 73.179688 C 91.804688 73.421875 91.160156 73.304688 90.742188 72.890625 L 79.914062 62.066406 C 79.46875 61.617188 79.46875 60.894531 79.914062 60.449219 C 80.359375 60 81.085938 60 81.53125 60.449219 L 91.949219 70.867188 C 95.535156 69.511719 99.664062 70.378906 102.398438 73.113281 C 105.339844 76.054688 106.113281 80.554688 104.320312 84.3125 C 103.980469 85.023438 103.039062 85.1875 102.480469 84.628906 L 98.511719 80.664062 L 96.03125 83.148438 L 99.996094 87.113281 C 100.550781 87.671875 100.390625 88.613281 99.679688 88.953125 C 95.90625 90.753906 91.410156 89.960938 88.476562 87.03125 Z M 88.476562 87.03125 " fill-opacity="1" fill-rule="nonzero"/></g><g clip-path="url(#844219f1fc)"><path fill="#000000" d="M 70.707031 61.058594 L 60.289062 50.640625 C 56.703125 51.996094 52.574219 51.128906 49.839844 48.394531 C 46.898438 45.449219 46.125 40.949219 47.917969 37.191406 C 48.257812 36.480469 49.203125 36.320312 49.757812 36.875 L 53.726562 40.84375 L 56.210938 38.359375 L 52.242188 34.394531 C 51.6875 33.835938 51.847656 32.890625 52.558594 32.550781 C 56.316406 30.761719 60.816406 31.53125 63.761719 34.476562 C 66.496094 37.207031 67.363281 41.339844 66.007812 44.921875 L 76.425781 55.339844 C 76.871094 55.789062 76.871094 56.511719 76.425781 56.957031 C 75.976562 57.40625 75.253906 57.40625 74.808594 56.957031 L 63.984375 46.136719 C 63.566406 45.710938 63.453125 45.070312 63.695312 44.53125 C 64.972656 41.691406 64.351562 38.296875 62.144531 36.09375 C 60.292969 34.238281 57.632812 33.507812 55.148438 34.0625 L 58.636719 37.550781 C 59.082031 37.996094 59.082031 38.722656 58.636719 39.167969 L 54.535156 43.269531 C 54.320312 43.484375 54.027344 43.605469 53.726562 43.605469 C 53.421875 43.605469 53.132812 43.484375 52.917969 43.269531 L 49.429688 39.78125 C 48.875 42.265625 49.605469 44.925781 51.457031 46.777344 C 53.664062 48.984375 57.058594 49.605469 59.898438 48.328125 C 60.433594 48.085938 61.078125 48.199219 61.496094 48.613281 L 72.324219 59.441406 C 72.773438 59.886719 72.773438 60.613281 72.324219 61.058594 C 71.878906 61.503906 71.15625 61.503906 70.707031 61.058594 Z M 70.707031 61.058594 " fill-opacity="1" fill-rule="nonzero"/></g><g clip-path="url(#1046d09378)"><path fill="#ffffff" d="M 92.949219 74.949219 C 92.949219 75.539062 92.921875 76.125 92.863281 76.714844 C 92.804688 77.300781 92.71875 77.882812 92.601562 78.460938 C 92.488281 79.039062 92.34375 79.609375 92.175781 80.175781 C 92.003906 80.738281 91.804688 81.292969 91.578125 81.835938 C 91.351562 82.382812 91.101562 82.914062 90.824219 83.433594 C 90.546875 83.953125 90.242188 84.460938 89.914062 84.949219 C 89.589844 85.441406 89.238281 85.914062 88.863281 86.367188 C 88.488281 86.824219 88.09375 87.261719 87.675781 87.675781 C 87.261719 88.09375 86.824219 88.488281 86.367188 88.863281 C 85.914062 89.238281 85.441406 89.589844 84.949219 89.914062 C 84.460938 90.242188 83.953125 90.546875 83.433594 90.824219 C 82.914062 91.101562 82.382812 91.351562 81.835938 91.578125 C 81.292969 91.804688 80.738281 92.003906 80.175781 92.175781 C 79.609375 92.34375 79.039062 92.488281 78.460938 92.601562 C 77.882812 92.71875 77.300781 92.804688 76.714844 92.863281 C 76.125 92.921875 75.539062 92.949219 74.949219 92.949219 C 74.359375 92.949219 73.769531 92.921875 73.183594 92.863281 C 72.597656 92.804688 72.015625 92.71875 71.4375 92.601562 C 70.859375 92.488281 70.289062 92.34375 69.722656 92.175781 C 69.160156 92.003906 68.605469 91.804688 68.0625 91.578125 C 67.515625 91.351562 66.984375 91.101562 66.464844 90.824219 C 65.945312 90.546875 65.4375 90.242188 64.949219 89.914062 C 64.457031 89.589844 63.984375 89.238281 63.53125 88.863281 C 63.074219 88.488281 62.636719 88.09375 62.222656 87.675781 C 61.804688 87.261719 61.410156 86.824219 61.035156 86.367188 C 60.660156 85.914062 60.308594 85.441406 59.984375 84.949219 C 59.65625 84.460938 59.351562 83.953125 59.074219 83.433594 C 58.796875 82.914062 58.542969 82.382812 58.320312 81.835938 C 58.09375 81.292969 57.894531 80.738281 57.722656 80.175781 C 57.554688 79.609375 57.410156 79.039062 57.292969 78.460938 C 57.179688 77.882812 57.09375 77.300781 57.035156 76.714844 C 56.976562 76.125 56.949219 75.539062 56.949219 74.949219 C 56.949219 74.359375 56.976562 73.769531 57.035156 73.183594 C 57.09375 72.597656 57.179688 72.015625 57.292969 71.4375 C 57.410156 70.859375 57.554688 70.289062 57.722656 69.722656 C 57.894531 69.160156 58.09375 68.605469 58.320312 68.0625 C 58.542969 67.515625 58.796875 66.984375 59.074219 66.464844 C 59.351562 65.945312 59.65625 65.4375 59.984375 64.949219 C 60.308594 64.457031 60.660156 63.984375 61.035156 63.53125 C 61.410156 63.074219 61.804688 62.636719 62.222656 62.222656 C 62.636719 61.804688 63.074219 61.410156 63.53125 61.035156 C 63.984375 60.660156 64.457031 60.308594 64.949219 59.984375 C 65.4375 59.65625 65.945312 59.351562 66.464844 59.074219 C 66.984375 58.796875 67.515625 58.542969 68.0625 58.320312 C 68.605469 58.09375 69.160156 57.894531 69.722656 57.722656 C 70.289062 57.554688 70.859375 57.410156 71.4375 57.292969 C 72.015625 57.179688 72.597656 57.09375 73.183594 57.035156 C 73.769531 56.976562 74.359375 56.949219 74.949219 56.949219 C 75.539062 56.949219 76.125 56.976562 76.714844 57.035156 C 77.300781 57.09375 77.882812 57.179688 78.460938 57.292969 C 79.039062 57.410156 79.609375 57.554688 80.175781 57.722656 C 80.738281 57.894531 81.292969 58.09375 81.835938 58.320312 C 82.382812 58.542969 82.914062 58.796875 83.433594 59.074219 C 83.953125 59.351562 84.460938 59.65625 84.949219 59.984375 C 85.441406 60.308594 85.914062 60.660156 86.367188 61.035156 C 86.824219 61.410156 87.261719 61.804688 87.675781 62.222656 C 88.09375 62.636719 88.488281 63.074219 88.863281 63.53125 C 89.238281 63.984375 89.589844 64.457031 89.914062 64.949219 C 90.242188 65.4375 90.546875 65.945312 90.824219 66.464844 C 91.101562 66.984375 91.351562 67.515625 91.578125 68.0625 C 91.804688 68.605469 92.003906 69.160156 92.175781 69.722656 C 92.34375 70.289062 92.488281 70.859375 92.601562 71.4375 C 92.71875 72.015625 92.804688 72.597656 92.863281 73.183594 C 92.921875 73.769531 92.949219 74.359375 92.949219 74.949219 Z M 92.949219 74.949219 " fill-opacity="1" fill-rule="nonzero"/></g><g clip-path="url(#6250fe9b7e)"><path fill="#000000" d="M 64.957031 60.957031 C 65.492188 60.871094 66.027344 60.769531 66.570312 60.761719 C 65.003906 61.007812 63.453125 61.394531 61.972656 61.976562 C 60.609375 62.511719 59.320312 63.242188 58.15625 64.140625 C 57.070312 64.964844 56.101562 65.925781 55.070312 66.8125 C 53.910156 67.792969 52.644531 68.628906 51.335938 69.382812 C 48.527344 70.984375 45.523438 72.207031 42.46875 73.226562 C 41.148438 73.660156 39.820312 74.058594 38.480469 74.40625 C 38.28125 74.449219 38.085938 74.519531 37.882812 74.535156 C 38.648438 74.34375 39.402344 74.101562 40.15625 73.875 C 43.359375 72.875 46.507812 71.667969 49.484375 70.097656 C 51.582031 68.984375 53.597656 67.675781 55.359375 66.0625 C 55.78125 65.691406 56.160156 65.277344 56.585938 64.914062 C 58.945312 62.839844 61.898438 61.519531 64.957031 60.957031 Z M 64.957031 60.957031 " fill-opacity="1" fill-rule="nonzero"/></g><path fill="#000000" d="M 72.382812 61.210938 C 75.777344 60.984375 79.1875 61.253906 82.550781 61.734375 C 83.433594 61.804688 84.253906 62.144531 85.082031 62.425781 C 87.675781 63.328125 90.242188 64.324219 92.730469 65.496094 C 90.605469 65.300781 88.472656 65.238281 86.335938 65.234375 C 83.789062 65.222656 81.238281 65.296875 78.691406 65.425781 C 78.085938 65.457031 77.472656 65.476562 76.875 65.367188 C 76.398438 65.277344 75.929688 65.09375 75.554688 64.769531 C 74.542969 63.847656 73.578125 62.863281 72.484375 62.039062 C 72.296875 61.886719 72.058594 61.785156 71.925781 61.574219 C 71.871094 61.503906 71.863281 61.390625 71.941406 61.335938 C 72.070312 61.242188 72.230469 61.230469 72.382812 61.210938 Z M 72.382812 61.210938 " fill-opacity="1" fill-rule="nonzero"/><path fill="#000000" d="M 66.945312 61.835938 C 67.8125 61.746094 68.703125 61.789062 69.539062 62.042969 C 70.65625 62.363281 71.664062 63.015625 72.484375 63.84375 C 73.171875 64.535156 73.730469 65.347656 74.199219 66.203125 C 70.84375 66.339844 67.488281 66.46875 64.132812 66.605469 C 63.671875 65.589844 63.074219 64.621094 62.289062 63.824219 C 62.160156 63.6875 61.980469 63.578125 61.925781 63.386719 C 61.914062 63.234375 62.078125 63.171875 62.1875 63.113281 C 62.753906 62.871094 63.339844 62.671875 63.925781 62.488281 C 64.910156 62.183594 65.917969 61.941406 66.945312 61.835938 Z M 66.945312 61.835938 " fill-opacity="1" fill-rule="nonzero"/><path fill="#000000" d="M 60.378906 63.964844 C 60.601562 63.855469 60.816406 63.699219 61.070312 63.6875 C 61.265625 63.710938 61.417969 63.855469 61.5625 63.976562 C 61.992188 64.367188 62.328125 64.855469 62.648438 65.34375 C 62.824219 65.625 62.992188 65.90625 63.148438 66.199219 C 63.203125 66.304688 63.261719 66.433594 63.207031 66.550781 C 63.128906 66.671875 62.96875 66.660156 62.84375 66.664062 C 61.925781 66.652344 61.007812 66.667969 60.085938 66.695312 C 59.207031 66.734375 58.324219 66.78125 57.453125 66.925781 C 57.136719 66.980469 56.816406 67.042969 56.519531 67.179688 C 57.191406 66.015625 58.238281 65.121094 59.390625 64.476562 C 59.710938 64.289062 60.046875 64.132812 60.378906 63.964844 Z M 60.378906 63.964844 " fill-opacity="1" fill-rule="nonzero"/><path fill="#000000" d="M 81.726562 66.003906 C 83.734375 65.953125 85.746094 65.902344 87.753906 65.804688 C 89.921875 65.730469 92.097656 65.761719 94.257812 65.964844 C 96.125 66.132812 97.992188 66.335938 99.851562 66.582031 C 100.832031 66.71875 101.8125 66.859375 102.785156 67.058594 C 104.222656 67.34375 105.675781 67.632812 107.023438 68.230469 C 107.429688 68.414062 107.828125 68.621094 108.203125 68.859375 C 107.4375 68.5625 106.652344 68.304688 105.84375 68.148438 C 105.503906 68.078125 105.152344 68.042969 104.8125 67.972656 C 104.421875 67.941406 104.03125 67.976562 103.640625 67.972656 C 102.429688 67.980469 101.210938 68.019531 100.011719 68.1875 C 99.851562 68.210938 99.671875 68.242188 99.574219 68.382812 C 99.488281 68.523438 99.550781 68.695312 99.613281 68.828125 C 100.03125 69.574219 100.40625 70.34375 100.792969 71.105469 C 101.058594 71.644531 101.332031 72.175781 101.589844 72.71875 C 100.539062 71.015625 99.085938 69.570312 97.402344 68.511719 C 97.113281 68.332031 96.820312 68.164062 96.515625 68.015625 C 96.101562 67.824219 95.652344 67.714844 95.199219 67.644531 C 94.335938 67.53125 93.480469 67.34375 92.621094 67.199219 C 88.515625 66.476562 84.351562 66.054688 80.183594 66.046875 C 80.699219 66.011719 81.210938 66.019531 81.726562 66.003906 Z M 81.726562 66.003906 " fill-opacity="1" fill-rule="nonzero"/><path fill="#000000" d="M 91.972656 68.316406 C 92.621094 68.453125 93.277344 68.691406 93.777344 69.152344 C 94.066406 69.414062 94.28125 69.761719 94.371094 70.144531 C 94.433594 70.398438 94.402344 70.679688 94.25 70.890625 C 94.0625 71.148438 93.765625 71.300781 93.472656 71.398438 C 93.742188 71.1875 94.019531 70.953125 94.132812 70.617188 C 94.242188 70.304688 94.140625 69.957031 93.949219 69.699219 C 93.65625 69.289062 93.234375 68.996094 92.8125 68.738281 C 92.539062 68.578125 92.261719 68.4375 91.972656 68.316406 Z M 91.972656 68.316406 " fill-opacity="1" fill-rule="nonzero"/><path fill="#000000" d="M 104.472656 68.3125 C 104.65625 68.289062 104.839844 68.28125 105.019531 68.300781 C 105.878906 68.476562 106.746094 68.628906 107.578125 68.90625 C 107.824219 68.988281 108.066406 69.085938 108.265625 69.253906 C 108.53125 69.46875 108.703125 69.777344 108.8125 70.097656 C 109.003906 70.671875 109.207031 71.246094 109.34375 71.835938 C 109.402344 72.085938 109.464844 72.367188 109.335938 72.609375 C 109.261719 72.765625 109.085938 72.839844 108.921875 72.828125 C 107.28125 72.703125 105.640625 72.636719 103.996094 72.609375 C 103.574219 72.59375 103.140625 72.652344 102.734375 72.507812 C 102.277344 72.351562 101.945312 71.96875 101.679688 71.578125 C 101.238281 70.929688 100.847656 70.25 100.480469 69.554688 C 100.367188 69.320312 100.261719 69.050781 100.328125 68.789062 C 100.378906 68.59375 100.585938 68.507812 100.765625 68.496094 C 101.996094 68.375 103.238281 68.375 104.472656 68.3125 Z M 104.472656 68.3125 " fill-opacity="1" fill-rule="nonzero"/><path fill="#000000" d="M 90.957031 68.355469 C 91.597656 68.304688 92.203125 68.597656 92.742188 68.921875 C 93.085938 69.136719 93.417969 69.386719 93.648438 69.722656 C 93.839844 69.996094 93.933594 70.347656 93.875 70.679688 C 93.785156 70.980469 93.515625 71.1875 93.230469 71.273438 C 92.863281 71.382812 92.472656 71.367188 92.101562 71.296875 C 91.222656 71.121094 90.460938 70.476562 90.105469 69.648438 C 89.996094 69.398438 89.980469 69.085938 90.15625 68.867188 C 90.359375 68.617188 90.628906 68.386719 90.957031 68.355469 Z M 90.957031 68.355469 " fill-opacity="1" fill-rule="nonzero"/><path fill="#000000" d="M 95.144531 68.371094 C 95.78125 68.261719 96.417969 68.515625 96.933594 68.878906 C 97.261719 69.105469 97.554688 69.386719 97.824219 69.683594 C 98.074219 69.945312 98.230469 70.28125 98.320312 70.628906 C 98.378906 70.90625 98.382812 71.230469 98.203125 71.464844 C 97.988281 71.738281 97.621094 71.828125 97.292969 71.820312 C 96.414062 71.734375 95.582031 71.25 95.0625 70.527344 C 94.875 70.265625 94.722656 69.976562 94.605469 69.675781 C 94.515625 69.398438 94.488281 69.085938 94.605469 68.8125 C 94.699219 68.585938 94.90625 68.417969 95.144531 68.371094 Z M 95.144531 68.371094 " fill-opacity="1" fill-rule="nonzero"/><path fill="#000000" d="M 96.621094 68.46875 C 97.179688 68.777344 97.738281 69.101562 98.21875 69.53125 C 98.460938 69.753906 98.695312 70.003906 98.820312 70.3125 C 98.921875 70.546875 98.933594 70.824219 98.816406 71.054688 C 98.730469 71.242188 98.578125 71.382812 98.417969 71.507812 C 98.582031 71.203125 98.625 70.835938 98.515625 70.503906 C 98.347656 69.976562 97.964844 69.558594 97.566406 69.191406 C 97.273438 68.921875 96.945312 68.699219 96.621094 68.46875 Z M 96.621094 68.46875 " fill-opacity="1" fill-rule="nonzero"/><path fill="#000000" d="M 108.976562 69.679688 C 108.992188 69.667969 109.023438 69.652344 109.039062 69.644531 C 109.195312 69.675781 109.316406 69.796875 109.425781 69.90625 C 109.753906 70.253906 109.976562 70.683594 110.167969 71.121094 C 110.296875 71.425781 110.4375 71.730469 110.480469 72.0625 C 110.496094 72.203125 110.507812 72.371094 110.40625 72.484375 C 110.339844 72.527344 110.269531 72.472656 110.21875 72.429688 C 109.796875 72.007812 109.585938 71.429688 109.320312 70.902344 C 109.179688 70.597656 109.027344 70.292969 108.949219 69.964844 C 108.9375 69.871094 108.910156 69.757812 108.976562 69.679688 Z M 108.976562 69.679688 " fill-opacity="1" fill-rule="nonzero"/><path fill="#000000" d="M 80.644531 70.71875 C 81.355469 70.589844 82.105469 70.597656 82.789062 70.867188 C 83.382812 71.09375 83.898438 71.507812 84.296875 72.011719 C 84.792969 72.636719 85.125 73.382812 85.34375 74.148438 C 85.582031 74.992188 85.695312 75.871094 85.683594 76.746094 C 85.636719 77.523438 85.535156 78.304688 85.332031 79.058594 C 85.140625 79.769531 84.855469 80.460938 84.414062 81.046875 C 84.027344 81.566406 83.515625 81.996094 82.921875 82.246094 C 82.246094 82.535156 81.496094 82.605469 80.773438 82.507812 C 81.402344 82.445312 82.023438 82.242188 82.53125 81.855469 C 83.109375 81.421875 83.523438 80.800781 83.804688 80.140625 C 84.175781 79.285156 84.359375 78.355469 84.464844 77.429688 C 84.582031 76.527344 84.5625 75.613281 84.453125 74.710938 C 84.355469 73.96875 84.175781 73.226562 83.835938 72.558594 C 83.542969 71.984375 83.113281 71.46875 82.558594 71.140625 C 81.988281 70.792969 81.304688 70.675781 80.644531 70.71875 Z M 80.644531 70.71875 " fill-opacity="1" fill-rule="nonzero"/><path fill="#000000" d="M 56.894531 72.726562 C 57.222656 73.300781 57.578125 73.867188 58.042969 74.34375 C 58.3125 74.613281 58.625 74.847656 58.984375 74.984375 C 59.359375 75.136719 59.765625 75.171875 60.164062 75.203125 C 65 75.5 69.832031 75.78125 74.667969 76.066406 C 74.960938 76.09375 75.257812 76.078125 75.550781 76.132812 C 73.257812 76.078125 70.96875 76.058594 68.675781 76.015625 C 65.734375 75.972656 62.792969 75.921875 59.851562 75.878906 C 59.46875 75.863281 59.082031 75.898438 58.707031 75.816406 C 58.144531 75.6875 57.707031 75.214844 57.53125 74.667969 C 57.324219 74.019531 57.09375 73.378906 56.894531 72.726562 Z M 56.894531 72.726562 " fill-opacity="1" fill-rule="nonzero"/><path fill="#000000" d="M 60.363281 76.789062 C 60.53125 76.769531 60.703125 76.726562 60.875 76.730469 C 64.066406 76.855469 67.257812 76.972656 70.453125 77.070312 C 71.609375 77.097656 72.765625 77.136719 73.921875 77.140625 C 74.050781 77.144531 74.183594 77.15625 74.308594 77.175781 C 73.851562 77.160156 73.394531 77.214844 72.933594 77.21875 C 70.035156 77.339844 67.128906 77.347656 64.226562 77.332031 C 61.9375 77.320312 59.648438 77.28125 57.359375 77.226562 C 58.359375 77.074219 59.363281 76.9375 60.363281 76.789062 Z M 60.363281 76.789062 " fill-opacity="1" fill-rule="nonzero"/><g clip-path="url(#b57cbd687b)"><path fill="#000000" d="M 87.195312 77.148438 C 87.222656 77.078125 87.300781 77.089844 87.359375 77.089844 C 89.070312 77.171875 90.785156 77.246094 92.5 77.207031 C 92.769531 77.742188 93.226562 78.183594 93.789062 78.390625 C 94.148438 78.53125 94.542969 78.589844 94.929688 78.570312 C 98.023438 78.769531 101.125 78.933594 104.230469 78.886719 C 105.335938 78.847656 106.4375 78.777344 107.539062 78.675781 C 108.394531 78.589844 109.25 78.488281 110.09375 78.308594 C 110.457031 78.226562 110.820312 78.136719 111.164062 77.988281 C 111.339844 77.910156 111.527344 77.820312 111.636719 77.648438 C 111.816406 77.878906 111.894531 78.164062 111.976562 78.441406 C 112.050781 78.703125 112 79 111.824219 79.207031 C 111.566406 79.511719 111.1875 79.667969 110.824219 79.792969 C 110.0625 80.039062 109.265625 80.144531 108.476562 80.238281 C 106.425781 80.457031 104.363281 80.519531 102.304688 80.589844 C 98.042969 80.730469 93.773438 80.601562 89.527344 80.238281 C 88.84375 80.175781 88.160156 80.113281 87.476562 80.03125 C 87.425781 80.015625 87.335938 80.023438 87.328125 79.949219 C 87.328125 79.015625 87.28125 78.078125 87.195312 77.148438 Z M 87.195312 77.148438 " fill-opacity="1" fill-rule="nonzero"/></g><path fill="#000000" d="M 84.207031 81.824219 C 85.363281 80.816406 85.953125 79.261719 86.019531 77.738281 C 86.121094 78.160156 86.117188 78.597656 86.144531 79.027344 C 86.160156 79.601562 86.175781 80.171875 86.144531 80.746094 C 86.167969 80.863281 86.3125 80.894531 86.414062 80.917969 C 86.90625 80.992188 87.402344 80.988281 87.898438 81.027344 C 87.757812 81.261719 87.550781 81.441406 87.359375 81.636719 C 87.066406 81.921875 86.757812 82.195312 86.445312 82.457031 C 86.085938 82.757812 85.589844 82.734375 85.152344 82.792969 C 84.214844 82.859375 83.269531 82.929688 82.328125 82.84375 C 83.015625 82.640625 83.667969 82.300781 84.207031 81.824219 Z M 84.207031 81.824219 " fill-opacity="1" fill-rule="nonzero"/><path fill="#000000" d="M 49.953125 78.527344 C 50.820312 78.59375 51.6875 78.707031 52.558594 78.789062 C 56.574219 79.199219 60.597656 79.59375 64.621094 79.949219 C 67.308594 80.183594 70.003906 80.40625 72.699219 80.566406 C 73.359375 80.59375 74.023438 80.644531 74.683594 80.648438 C 73.617188 80.664062 72.546875 80.632812 71.476562 80.625 C 68.769531 80.601562 66.066406 80.582031 63.359375 80.570312 C 63.164062 80.566406 62.96875 80.574219 62.777344 80.5625 C 58.5 79.886719 54.226562 79.195312 49.953125 78.527344 Z M 49.953125 78.527344 " fill-opacity="1" fill-rule="nonzero"/><g clip-path="url(#4c24897d7a)"><path fill="#000000" d="M 104.625 81.242188 C 105.460938 81.21875 106.296875 81.179688 107.132812 81.109375 C 106.988281 81.375 106.746094 81.5625 106.523438 81.753906 C 105.484375 82.578125 104.214844 83.132812 102.890625 83.210938 C 102.046875 83.257812 101.195312 83.089844 100.429688 82.722656 C 99.691406 82.375 99.039062 81.859375 98.476562 81.269531 C 100.527344 81.292969 102.574219 81.296875 104.625 81.242188 Z M 104.625 81.242188 " fill-opacity="1" fill-rule="nonzero"/></g><g fill="#000000" fill-opacity="1"><g transform="translate(11.744616, 95.152189)"><g><path d="M 5.304688 -8.269531 L 8.253906 -8.269531 L 8.253906 -10.335938 L 0.0742188 -10.335938 L 0.0742188 -8.269531 L 3.023438 -8.269531 L 3.023438 0 L 5.304688 0 Z M 5.304688 -8.269531 "/></g></g></g><g fill="#000000" fill-opacity="1"><g transform="translate(22.322115, 95.152189)"><g><path d="M 3.191406 -3.691406 L 3.207031 -3.691406 L 5.667969 0 L 8.554688 0 L 5.59375 -3.800781 C 6.898438 -4.117188 7.949219 -5.273438 7.949219 -7.019531 C 7.949219 -8.980469 6.460938 -10.335938 4.789062 -10.335938 L 0.910156 -10.335938 L 0.910156 0 L 3.191406 0 Z M 4.40625 -8.542969 C 5.074219 -8.542969 5.773438 -7.964844 5.773438 -7.019531 C 5.773438 -6.035156 5.074219 -5.488281 4.40625 -5.488281 L 3.191406 -5.488281 L 3.191406 -8.542969 Z M 4.40625 -8.542969 "/></g></g></g><g fill="#000000" fill-opacity="1"><g transform="translate(32.945207, 95.152189)"><g><path d="M 3.191406 0 L 3.191406 -10.335938 L 0.910156 -10.335938 L 0.910156 0 Z M 3.191406 0 "/></g></g></g><g fill="#000000" fill-opacity="1"><g transform="translate(39.297968, 95.152189)"><g><path d="M 6.945312 -10.335938 L 6.945312 -4.363281 C 6.945312 -2.933594 6.519531 -2.128906 4.953125 -2.128906 C 3.40625 -2.128906 2.964844 -2.933594 2.964844 -4.363281 L 2.964844 -10.335938 L 0.683594 -10.335938 L 0.683594 -4.027344 C 0.683594 -1.277344 2.265625 0.152344 4.953125 0.152344 C 7.644531 0.152344 9.226562 -1.277344 9.226562 -4.027344 L 9.226562 -10.335938 Z M 6.945312 -10.335938 "/></g></g></g><g fill="#000000" fill-opacity="1"><g transform="translate(51.455947, 95.152189)"><g><path d="M 13.800781 0 L 11.792969 -10.335938 L 9.089844 -10.335938 L 6.945312 -3.085938 L 4.789062 -10.335938 L 2.082031 -10.335938 L 0.0742188 0 L 2.582031 0 L 3.800781 -7.128906 L 5.820312 0 L 8.054688 0 L 10.078125 -7.128906 L 11.292969 0 Z M 13.800781 0 "/></g></g></g><g fill="#000000" fill-opacity="1"><g transform="translate(67.580314, 95.152189)"><g><path d="M 10.394531 -10.335938 L 7.933594 -10.335938 L 5.789062 -4.527344 L 5.226562 -2.902344 L 4.664062 -4.527344 L 2.539062 -10.335938 L 0.0742188 -10.335938 L 4.253906 0 L 6.214844 0 Z M 10.394531 -10.335938 "/></g></g></g><g fill="#000000" fill-opacity="1"><g transform="translate(80.300577, 95.152189)"><g><path d="M 3.191406 0 L 3.191406 -10.335938 L 0.910156 -10.335938 L 0.910156 0 Z M 3.191406 0 "/></g></g></g><g fill="#000000" fill-opacity="1"><g transform="translate(86.653338, 95.152189)"><g><path d="M 3.191406 -3.691406 L 3.207031 -3.691406 L 5.667969 0 L 8.554688 0 L 5.59375 -3.800781 C 6.898438 -4.117188 7.949219 -5.273438 7.949219 -7.019531 C 7.949219 -8.980469 6.460938 -10.335938 4.789062 -10.335938 L 0.910156 -10.335938 L 0.910156 0 L 3.191406 0 Z M 4.40625 -8.542969 C 5.074219 -8.542969 5.773438 -7.964844 5.773438 -7.019531 C 5.773438 -6.035156 5.074219 -5.488281 4.40625 -5.488281 L 3.191406 -5.488281 L 3.191406 -8.542969 Z M 4.40625 -8.542969 "/></g></g></g><g fill="#000000" fill-opacity="1"><g transform="translate(97.276435, 95.152189)"><g><path d="M 6.535156 -3.953125 L 3.921875 -3.953125 L 5.226562 -7.628906 Z M 10.394531 0 L 6.199219 -10.335938 L 4.269531 -10.335938 L 0.0742188 0 L 2.523438 0 L 3.265625 -2.082031 L 7.203125 -2.082031 L 7.949219 0 Z M 10.394531 0 "/></g></g></g><g fill="#000000" fill-opacity="1"><g transform="translate(109.996698, 95.152189)"><g><path d="M 5.304688 -8.269531 L 8.253906 -8.269531 L 8.253906 -10.335938 L 0.0742188 -10.335938 L 0.0742188 -8.269531 L 3.023438 -8.269531 L 3.023438 0 L 5.304688 0 Z M 5.304688 -8.269531 "/></g></g></g><g fill="#000000" fill-opacity="1"><g transform="translate(120.574196, 95.152189)"><g><path d="M 6.945312 -10.335938 L 6.945312 -4.363281 C 6.945312 -2.933594 6.519531 -2.128906 4.953125 -2.128906 C 3.40625 -2.128906 2.964844 -2.933594 2.964844 -4.363281 L 2.964844 -10.335938 L 0.683594 -10.335938 L 0.683594 -4.027344 C 0.683594 -1.277344 2.265625 0.152344 4.953125 0.152344 C 7.644531 0.152344 9.226562 -1.277344 9.226562 -4.027344 L 9.226562 -10.335938 Z M 6.945312 -10.335938 "/></g></g></g><g fill="#000000" fill-opacity="1"><g transform="translate(132.73217, 95.152189)"><g><path d="M 4.925781 -1.609375 C 3.800781 -1.609375 2.828125 -2.171875 2.765625 -3.40625 L 0.457031 -3.40625 C 0.472656 -0.882812 2.554688 0.242188 4.832031 0.242188 C 6.945312 0.242188 9.117188 -0.652344 9.117188 -3.085938 C 9.117188 -7.019531 3.144531 -5.699219 3.144531 -7.539062 C 3.144531 -8.3125 4.042969 -8.617188 4.679688 -8.617188 C 5.820312 -8.617188 6.445312 -8.269531 6.566406 -7.1875 L 8.769531 -7.1875 C 8.691406 -9.542969 6.777344 -10.488281 4.652344 -10.488281 C 2.765625 -10.488281 0.789062 -9.484375 0.789062 -7.355469 C 0.789062 -3.542969 6.761719 -4.832031 6.761719 -2.828125 C 6.761719 -1.898438 5.636719 -1.609375 4.925781 -1.609375 Z M 4.925781 -1.609375 "/></g></g></g><g fill="#000000" fill-opacity="1"><g transform="translate(144.560235, 95.152189)"><g/></g></g><g fill="#000000" fill-opacity="1"><g transform="translate(45.970311, 106.072196)"><g><path d="M 0.34375 -1.90625 L 0.34375 -2.203125 L 2.109375 -2.203125 L 2.109375 -1.90625 Z M 0.34375 -1.90625 "/></g></g></g><g fill="#000000" fill-opacity="1"><g transform="translate(48.415318, 106.072196)"><g><path d="M 2.1875 0 L 1.796875 0 L 1.796875 -5.0625 L 0.03125 -5.0625 L 0.03125 -5.421875 L 3.9375 -5.421875 L 3.9375 -5.0625 L 2.1875 -5.0625 Z M 2.1875 0 "/></g></g></g><g fill="#000000" fill-opacity="1"><g transform="translate(52.396338, 106.072196)"><g><path d="M 3.125 0 L 3.03125 -0.640625 L 3 -0.640625 C 2.800781 -0.378906 2.59375 -0.191406 2.375 -0.078125 C 2.15625 0.0234375 1.898438 0.078125 1.609375 0.078125 C 1.210938 0.078125 0.90625 -0.0195312 0.6875 -0.21875 C 0.46875 -0.425781 0.359375 -0.710938 0.359375 -1.078125 C 0.359375 -1.460938 0.519531 -1.765625 0.84375 -1.984375 C 1.175781 -2.203125 1.65625 -2.316406 2.28125 -2.328125 L 3.046875 -2.359375 L 3.046875 -2.625 C 3.046875 -3.007812 2.96875 -3.296875 2.8125 -3.484375 C 2.65625 -3.679688 2.40625 -3.78125 2.0625 -3.78125 C 1.6875 -3.78125 1.296875 -3.675781 0.890625 -3.46875 L 0.765625 -3.796875 C 1.203125 -3.992188 1.640625 -4.09375 2.078125 -4.09375 C 2.515625 -4.09375 2.84375 -3.976562 3.0625 -3.75 C 3.28125 -3.519531 3.390625 -3.164062 3.390625 -2.6875 L 3.390625 0 Z M 1.640625 -0.265625 C 2.066406 -0.265625 2.40625 -0.382812 2.65625 -0.625 C 2.90625 -0.875 3.03125 -1.21875 3.03125 -1.65625 L 3.03125 -2.046875 L 2.328125 -2.015625 C 1.753906 -1.992188 1.347656 -1.90625 1.109375 -1.75 C 0.867188 -1.601562 0.75 -1.375 0.75 -1.0625 C 0.75 -0.800781 0.828125 -0.601562 0.984375 -0.46875 C 1.140625 -0.332031 1.359375 -0.265625 1.640625 -0.265625 Z M 1.640625 -0.265625 "/></g></g></g><g fill="#000000" fill-opacity="1"><g transform="translate(56.421879, 106.072196)"><g><path d="M 1.046875 0 L 0.671875 0 L 0.671875 -5.765625 L 1.046875 -5.765625 Z M 1.046875 0 "/></g></g></g><g fill="#000000" fill-opacity="1"><g transform="translate(58.139692, 106.072196)"><g><path d="M 1.046875 0 L 0.671875 0 L 0.671875 -5.765625 L 1.046875 -5.765625 Z M 1.046875 0 "/></g></g></g><g fill="#000000" fill-opacity="1"><g transform="translate(59.857505, 106.072196)"><g><path d="M 2.296875 0.078125 C 1.710938 0.078125 1.253906 -0.101562 0.921875 -0.46875 C 0.597656 -0.832031 0.4375 -1.335938 0.4375 -1.984375 C 0.4375 -2.628906 0.59375 -3.144531 0.90625 -3.53125 C 1.226562 -3.914062 1.65625 -4.109375 2.1875 -4.109375 C 2.664062 -4.109375 3.039062 -3.941406 3.3125 -3.609375 C 3.59375 -3.273438 3.734375 -2.828125 3.734375 -2.265625 L 3.734375 -1.96875 L 0.828125 -1.96875 C 0.828125 -1.414062 0.953125 -0.992188 1.203125 -0.703125 C 1.460938 -0.410156 1.828125 -0.265625 2.296875 -0.265625 C 2.523438 -0.265625 2.726562 -0.28125 2.90625 -0.3125 C 3.082031 -0.34375 3.304688 -0.410156 3.578125 -0.515625 L 3.578125 -0.1875 C 3.347656 -0.0820312 3.132812 -0.015625 2.9375 0.015625 C 2.75 0.0546875 2.535156 0.078125 2.296875 0.078125 Z M 2.1875 -3.78125 C 1.800781 -3.78125 1.488281 -3.648438 1.25 -3.390625 C 1.019531 -3.140625 0.882812 -2.773438 0.84375 -2.296875 L 3.34375 -2.296875 C 3.34375 -2.765625 3.238281 -3.128906 3.03125 -3.390625 C 2.832031 -3.648438 2.550781 -3.78125 2.1875 -3.78125 Z M 2.1875 -3.78125 "/></g></g></g><g fill="#000000" fill-opacity="1"><g transform="translate(64.027741, 106.072196)"><g><path d="M 2.265625 -4.109375 C 2.429688 -4.109375 2.613281 -4.09375 2.8125 -4.0625 L 2.734375 -3.703125 C 2.566406 -3.742188 2.394531 -3.765625 2.21875 -3.765625 C 1.875 -3.765625 1.59375 -3.617188 1.375 -3.328125 C 1.15625 -3.035156 1.046875 -2.664062 1.046875 -2.21875 L 1.046875 0 L 0.671875 0 L 0.671875 -4.03125 L 0.984375 -4.03125 L 1.015625 -3.296875 L 1.046875 -3.296875 C 1.210938 -3.597656 1.390625 -3.804688 1.578125 -3.921875 C 1.765625 -4.046875 1.992188 -4.109375 2.265625 -4.109375 Z M 2.265625 -4.109375 "/></g></g></g><g fill="#000000" fill-opacity="1"><g transform="translate(66.984752, 106.072196)"><g/></g></g><g fill="#000000" fill-opacity="1"><g transform="translate(68.958565, 106.072196)"><g><path d="M 3.15625 0 L 1.125 -5 L 1.09375 -5 C 1.113281 -4.695312 1.125 -4.382812 1.125 -4.0625 L 1.125 0 L 0.765625 0 L 0.765625 -5.421875 L 1.359375 -5.421875 L 3.28125 -0.65625 L 3.296875 -0.65625 L 5.21875 -5.421875 L 5.78125 -5.421875 L 5.78125 0 L 5.40625 0 L 5.40625 -4.109375 C 5.40625 -4.390625 5.421875 -4.6875 5.453125 -5 L 5.421875 -5 L 3.390625 0 Z M 3.15625 0 "/></g></g></g><g fill="#000000" fill-opacity="1"><g transform="translate(75.514446, 106.072196)"><g><path d="M 2.296875 0.078125 C 1.710938 0.078125 1.253906 -0.101562 0.921875 -0.46875 C 0.597656 -0.832031 0.4375 -1.335938 0.4375 -1.984375 C 0.4375 -2.628906 0.59375 -3.144531 0.90625 -3.53125 C 1.226562 -3.914062 1.65625 -4.109375 2.1875 -4.109375 C 2.664062 -4.109375 3.039062 -3.941406 3.3125 -3.609375 C 3.59375 -3.273438 3.734375 -2.828125 3.734375 -2.265625 L 3.734375 -1.96875 L 0.828125 -1.96875 C 0.828125 -1.414062 0.953125 -0.992188 1.203125 -0.703125 C 1.460938 -0.410156 1.828125 -0.265625 2.296875 -0.265625 C 2.523438 -0.265625 2.726562 -0.28125 2.90625 -0.3125 C 3.082031 -0.34375 3.304688 -0.410156 3.578125 -0.515625 L 3.578125 -0.1875 C 3.347656 -0.0820312 3.132812 -0.015625 2.9375 0.015625 C 2.75 0.0546875 2.535156 0.078125 2.296875 0.078125 Z M 2.1875 -3.78125 C 1.800781 -3.78125 1.488281 -3.648438 1.25 -3.390625 C 1.019531 -3.140625 0.882812 -2.773438 0.84375 -2.296875 L 3.34375 -2.296875 C 3.34375 -2.765625 3.238281 -3.128906 3.03125 -3.390625 C 2.832031 -3.648438 2.550781 -3.78125 2.1875 -3.78125 Z M 2.1875 -3.78125 "/></g></g></g><g fill="#000000" fill-opacity="1"><g transform="translate(79.684682, 106.072196)"><g><path d="M 2.28125 0.078125 C 1.707031 0.078125 1.253906 -0.101562 0.921875 -0.46875 C 0.597656 -0.832031 0.4375 -1.335938 0.4375 -1.984375 C 0.4375 -2.660156 0.601562 -3.179688 0.9375 -3.546875 C 1.28125 -3.921875 1.75 -4.109375 2.34375 -4.109375 C 2.6875 -4.109375 3.019531 -4.046875 3.34375 -3.921875 L 3.234375 -3.59375 C 2.890625 -3.71875 2.585938 -3.78125 2.328125 -3.78125 C 1.835938 -3.78125 1.460938 -3.625 1.203125 -3.3125 C 0.953125 -3.007812 0.828125 -2.570312 0.828125 -2 C 0.828125 -1.457031 0.953125 -1.03125 1.203125 -0.71875 C 1.460938 -0.414062 1.820312 -0.265625 2.28125 -0.265625 C 2.644531 -0.265625 2.984375 -0.328125 3.296875 -0.453125 L 3.296875 -0.109375 C 3.035156 0.015625 2.695312 0.078125 2.28125 0.078125 Z M 2.28125 0.078125 "/></g></g></g><g fill="#000000" fill-opacity="1"><g transform="translate(83.294683, 106.072196)"><g><path d="M 3.125 0 L 3.03125 -0.640625 L 3 -0.640625 C 2.800781 -0.378906 2.59375 -0.191406 2.375 -0.078125 C 2.15625 0.0234375 1.898438 0.078125 1.609375 0.078125 C 1.210938 0.078125 0.90625 -0.0195312 0.6875 -0.21875 C 0.46875 -0.425781 0.359375 -0.710938 0.359375 -1.078125 C 0.359375 -1.460938 0.519531 -1.765625 0.84375 -1.984375 C 1.175781 -2.203125 1.65625 -2.316406 2.28125 -2.328125 L 3.046875 -2.359375 L 3.046875 -2.625 C 3.046875 -3.007812 2.96875 -3.296875 2.8125 -3.484375 C 2.65625 -3.679688 2.40625 -3.78125 2.0625 -3.78125 C 1.6875 -3.78125 1.296875 -3.675781 0.890625 -3.46875 L 0.765625 -3.796875 C 1.203125 -3.992188 1.640625 -4.09375 2.078125 -4.09375 C 2.515625 -4.09375 2.84375 -3.976562 3.0625 -3.75 C 3.28125 -3.519531 3.390625 -3.164062 3.390625 -2.6875 L 3.390625 0 Z M 1.640625 -0.265625 C 2.066406 -0.265625 2.40625 -0.382812 2.65625 -0.625 C 2.90625 -0.875 3.03125 -1.21875 3.03125 -1.65625 L 3.03125 -2.046875 L 2.328125 -2.015625 C 1.753906 -1.992188 1.347656 -1.90625 1.109375 -1.75 C 0.867188 -1.601562 0.75 -1.375 0.75 -1.0625 C 0.75 -0.800781 0.828125 -0.601562 0.984375 -0.46875 C 1.140625 -0.332031 1.359375 -0.265625 1.640625 -0.265625 Z M 1.5625 -4.65625 C 1.75 -4.851562 1.929688 -5.066406 2.109375 -5.296875 C 2.285156 -5.523438 2.40625 -5.695312 2.46875 -5.8125 L 2.984375 -5.8125 L 2.984375 -5.75 C 2.898438 -5.625 2.75 -5.453125 2.53125 -5.234375 C 2.320312 -5.023438 2.085938 -4.8125 1.828125 -4.59375 L 1.5625 -4.59375 Z M 1.5625 -4.65625 "/></g></g></g><g fill="#000000" fill-opacity="1"><g transform="translate(87.320225, 106.072196)"><g><path d="M 3.484375 0 L 3.484375 -2.609375 C 3.484375 -3.015625 3.394531 -3.3125 3.21875 -3.5 C 3.050781 -3.6875 2.789062 -3.78125 2.4375 -3.78125 C 1.957031 -3.78125 1.601562 -3.65625 1.375 -3.40625 C 1.15625 -3.164062 1.046875 -2.769531 1.046875 -2.21875 L 1.046875 0 L 0.671875 0 L 0.671875 -4.03125 L 0.984375 -4.03125 L 1.0625 -3.484375 L 1.078125 -3.484375 C 1.335938 -3.898438 1.804688 -4.109375 2.484375 -4.109375 C 3.390625 -4.109375 3.84375 -3.617188 3.84375 -2.640625 L 3.84375 0 Z M 3.484375 0 "/></g></g></g><g fill="#000000" fill-opacity="1"><g transform="translate(91.802116, 106.072196)"><g><path d="M 1.046875 0 L 0.671875 0 L 0.671875 -4.03125 L 1.046875 -4.03125 Z M 0.625 -5.15625 C 0.625 -5.382812 0.703125 -5.5 0.859375 -5.5 C 0.929688 -5.5 0.988281 -5.46875 1.03125 -5.40625 C 1.070312 -5.351562 1.09375 -5.269531 1.09375 -5.15625 C 1.09375 -5.039062 1.070312 -4.953125 1.03125 -4.890625 C 0.988281 -4.828125 0.929688 -4.796875 0.859375 -4.796875 C 0.703125 -4.796875 0.625 -4.914062 0.625 -5.15625 Z M 0.625 -5.15625 "/></g></g></g><g fill="#000000" fill-opacity="1"><g transform="translate(93.519929, 106.072196)"><g><path d="M 2.28125 0.078125 C 1.707031 0.078125 1.253906 -0.101562 0.921875 -0.46875 C 0.597656 -0.832031 0.4375 -1.335938 0.4375 -1.984375 C 0.4375 -2.660156 0.601562 -3.179688 0.9375 -3.546875 C 1.28125 -3.921875 1.75 -4.109375 2.34375 -4.109375 C 2.6875 -4.109375 3.019531 -4.046875 3.34375 -3.921875 L 3.234375 -3.59375 C 2.890625 -3.71875 2.585938 -3.78125 2.328125 -3.78125 C 1.835938 -3.78125 1.460938 -3.625 1.203125 -3.3125 C 0.953125 -3.007812 0.828125 -2.570312 0.828125 -2 C 0.828125 -1.457031 0.953125 -1.03125 1.203125 -0.71875 C 1.460938 -0.414062 1.820312 -0.265625 2.28125 -0.265625 C 2.644531 -0.265625 2.984375 -0.328125 3.296875 -0.453125 L 3.296875 -0.109375 C 3.035156 0.015625 2.695312 0.078125 2.28125 0.078125 Z M 2.28125 0.078125 "/></g></g></g><g fill="#000000" fill-opacity="1"><g transform="translate(97.12993, 106.072196)"><g><path d="M 4.015625 -2.015625 C 4.015625 -1.359375 3.851562 -0.84375 3.53125 -0.46875 C 3.207031 -0.101562 2.765625 0.078125 2.203125 0.078125 C 1.847656 0.078125 1.535156 -0.00390625 1.265625 -0.171875 C 1.003906 -0.347656 0.800781 -0.59375 0.65625 -0.90625 C 0.507812 -1.226562 0.4375 -1.597656 0.4375 -2.015625 C 0.4375 -2.671875 0.59375 -3.179688 0.90625 -3.546875 C 1.226562 -3.921875 1.671875 -4.109375 2.234375 -4.109375 C 2.785156 -4.109375 3.21875 -3.921875 3.53125 -3.546875 C 3.851562 -3.179688 4.015625 -2.671875 4.015625 -2.015625 Z M 0.828125 -2.015625 C 0.828125 -1.460938 0.945312 -1.03125 1.1875 -0.71875 C 1.4375 -0.414062 1.78125 -0.265625 2.21875 -0.265625 C 2.664062 -0.265625 3.007812 -0.414062 3.25 -0.71875 C 3.5 -1.03125 3.625 -1.460938 3.625 -2.015625 C 3.625 -2.578125 3.5 -3.007812 3.25 -3.3125 C 3.007812 -3.625 2.664062 -3.78125 2.21875 -3.78125 C 1.769531 -3.78125 1.425781 -3.625 1.1875 -3.3125 C 0.945312 -3.007812 0.828125 -2.578125 0.828125 -2.015625 Z M 0.828125 -2.015625 "/></g></g></g><g fill="#000000" fill-opacity="1"><g transform="translate(101.58214, 106.072196)"><g><path d="M 0.34375 -1.90625 L 0.34375 -2.203125 L 2.109375 -2.203125 L 2.109375 -1.90625 Z M 0.34375 -1.90625 "/></g></g></g></svg>